<?xml version="1.0" standalone="no"?>
<!DOCTYPE svg PUBLIC "-//W3C//DTD SVG 20010904//EN"
 "http://www.w3.org/TR/2001/REC-SVG-20010904/DTD/svg10.dtd">
<svg version="1.0" xmlns="http://www.w3.org/2000/svg"
 width="500.000000pt" height="500.000000pt" viewBox="0 0 500.000000 500.000000"
 preserveAspectRatio="xMidYMid meet">
<metadata>
Created by potrace 1.14, written by Peter Selinger 2001-2017
</metadata>
<g transform="translate(0.000000,500.000000) scale(0.100000,-0.100000)"
fill="#000000" stroke="none">
<path d="M955 4139 c-155 -25 -278 -116 -340 -252 -100 -218 -6 -471 215 -576
72 -34 80 -36 180 -35 84 0 116 4 160 22 197 78 313 294 266 495 -19 80 -35
114 -88 185 -84 112 -256 183 -393 161z"/>
<path d="M1924 3871 c-90 -41 -133 -138 -100 -226 19 -49 71 -101 114 -112 15
-5 551 -8 1192 -8 l1165 0 37 23 c105 65 122 195 39 282 -21 22 -53 42 -76 49
-28 8 -379 11 -1185 11 -1092 0 -1147 -1 -1186 -19z"/>
<path d="M4810 2883 c0 -5 6 -16 14 -25 10 -13 15 -15 24 -6 20 20 13 38 -13
38 -14 0 -25 -3 -25 -7z"/>
<path d="M915 2816 c-327 -81 -450 -474 -225 -718 169 -185 453 -192 629 -17
169 169 172 435 6 608 -65 68 -128 105 -216 126 -76 17 -126 18 -194 1z"/>
<path d="M4829 2799 c-9 -13 -20 -43 -24 -67 -4 -23 -11 -44 -16 -48 -12 -7
-12 -44 1 -44 13 0 28 30 32 65 2 17 10 40 17 53 7 13 11 33 9 45 -3 21 -3 21
-19 -4z"/>
<path d="M1915 2556 c-39 -17 -80 -65 -95 -112 -27 -81 17 -180 94 -215 41
-18 91 -18 1205 -19 1121 -1 1163 -1 1198 17 21 11 51 36 67 57 28 34 31 45
31 105 0 59 -4 72 -29 105 -15 21 -42 46 -60 57 -30 18 -66 19 -1206 19 -954
-1 -1181 -3 -1205 -14z"/>
<path d="M938 1499 c-75 -11 -151 -47 -216 -105 -161 -141 -193 -392 -72 -569
97 -142 267 -215 434 -187 93 16 165 52 230 116 103 100 152 248 127 382 -34
185 -176 330 -357 363 -64 12 -65 12 -146 0z"/>
<path d="M1912 1229 c-83 -41 -121 -138 -88 -224 18 -45 61 -90 102 -105 12
-5 548 -10 1191 -11 1105 -2 1170 -1 1206 15 130 62 137 249 11 322 l-41 24
-1169 0 -1169 0 -43 -21z"/>
</g>
</svg>
